<svg width="43" height="42" viewBox="0 0 43 42" fill="none" xmlns="http://www.w3.org/2000/svg">
<path d="M37.6109 0.158203C38.5349 0.158203 39.3702 0.37287 40.1169 0.802203C40.8729 1.23154 41.4656 1.8242 41.8949 2.5802C42.3242 3.32687 42.5389 4.15754 42.5389 5.0722C42.5389 5.98687 42.3196 6.82687 41.8809 7.5922C41.4422 8.3482 40.8449 8.94554 40.0889 9.3842C39.3329 9.82287 38.4976 10.0422 37.5829 10.0422C36.6682 10.0422 35.8329 9.82287 35.0769 9.3842C34.3302 8.94554 33.7376 8.3482 33.2989 7.5922C32.8696 6.8362 32.6549 6.00554 32.6549 5.1002C32.6549 4.19487 32.8696 3.3642 33.2989 2.6082C33.7376 1.8522 34.3349 1.25487 35.0909 0.816203C35.8469 0.377536 36.6869 0.158203 37.6109 0.158203ZM37.5829 9.1322C38.3296 9.1322 39.0062 8.95487 39.6129 8.6002C40.2289 8.2362 40.7096 7.7462 41.0549 7.1302C41.4096 6.50487 41.5869 5.81887 41.5869 5.0722C41.5869 4.3162 41.4142 3.63487 41.0689 3.0282C40.7329 2.42154 40.2616 1.94554 39.6549 1.6002C39.0482 1.24554 38.3669 1.0682 37.6109 1.0682C36.8549 1.0682 36.1736 1.24554 35.5669 1.6002C34.9602 1.95487 34.4842 2.4402 34.1389 3.0562C33.7936 3.6722 33.6209 4.35354 33.6209 5.1002C33.6209 5.84687 33.7936 6.5282 34.1389 7.1442C34.4842 7.7602 34.9556 8.24554 35.5529 8.6002C36.1596 8.95487 36.8362 9.1322 37.5829 9.1322ZM40.1869 4.3162C40.1869 4.7082 40.0982 5.04887 39.9209 5.3382C39.7529 5.6182 39.5009 5.83754 39.1649 5.9962L40.3549 7.8162H38.8989L37.8769 6.2482H36.9109V7.8162H35.4549V2.3842H37.8209C38.5582 2.3842 39.1369 2.56154 39.5569 2.9162C39.9769 3.26154 40.1869 3.7282 40.1869 4.3162ZM37.7229 5.1562C38.0496 5.1562 38.3016 5.0862 38.4789 4.9462C38.6656 4.79687 38.7589 4.58687 38.7589 4.3162C38.7589 4.04554 38.6656 3.83554 38.4789 3.6862C38.3016 3.53687 38.0496 3.4622 37.7229 3.4622H36.8969V5.1562H37.7229Z" fill="white"/>
<path d="M14.3999 2.22025C12.5599 2.54025 11.2799 2.82025 10.8999 2.98025C10.6799 3.08025 10.1799 3.30025 9.75994 3.48025C9.35994 3.66025 8.97994 3.80025 8.91994 3.80025C8.83994 3.80025 8.21994 4.16025 7.51994 4.60025C5.59994 5.82025 3.45994 8.18025 2.53994 10.1003C2.11994 10.9802 1.67994 11.8603 1.55994 12.0802C1.45994 12.2803 1.31994 12.9202 1.25994 13.4802L1.15993 14.5002L2.17994 14.5203C3.29994 14.5402 3.53994 14.6803 4.17994 15.8603C5.09994 17.5002 5.33994 20.0402 4.85994 22.8802L4.61994 24.2603L5.45994 25.1003C6.65994 26.3003 7.07994 27.6003 6.93994 29.6602C6.83994 31.2803 6.53994 32.1802 5.75994 33.1802C5.55994 33.4402 5.39994 33.8003 5.39994 33.9603C5.39994 34.4202 6.75994 35.5402 8.09994 36.1802C10.0999 37.1202 10.7399 37.4002 10.9799 37.4002C11.0999 37.4002 11.3599 37.4803 11.5599 37.5802C11.7399 37.6802 12.4799 37.9202 13.1999 38.1003C13.9199 38.2803 14.7799 38.5003 15.0999 38.6003C16.0199 38.8403 16.9399 38.8802 21.6999 38.8802C26.8599 38.8802 27.0799 38.8602 29.1399 37.8602C30.5799 37.1602 31.5399 36.0602 32.1399 34.4002C32.5199 33.3203 32.0599 33.3002 31.0599 34.3402C30.0999 35.3202 28.1399 36.3202 26.5199 36.6402C24.8999 36.9602 20.8199 37.0602 19.5999 36.8202C13.7599 35.6002 9.47994 32.3402 8.21994 28.1402C7.73994 26.5002 7.67994 19.7002 8.13994 18.0203C8.59994 16.2802 9.81994 15.0002 11.3999 14.5402C12.7399 14.1402 22.2999 13.5602 30.3999 13.3603C32.4399 13.3202 32.4999 13.3202 32.7199 13.8002C33.0199 14.4002 33.3199 15.1602 33.4799 15.6803C33.7399 16.4802 33.9599 15.6602 33.7999 14.5002C33.6399 13.4802 32.7799 11.3002 32.3799 11.0002C32.3199 10.9403 32.1999 10.7002 32.1199 10.4403C32.0399 10.2002 31.8799 10.0002 31.7799 10.0002C31.6799 10.0002 31.5999 9.90025 31.5999 9.78025C31.5999 9.54025 30.5599 8.20025 29.6199 7.26025C28.1199 5.72025 24.0999 3.20025 23.1399 3.20025C22.9799 3.20025 22.7599 3.10025 22.6999 3.00025C22.6199 2.88025 22.4599 2.80025 22.3399 2.82025C22.1999 2.84025 21.9599 2.82025 21.7999 2.74025C21.4999 2.62025 20.9799 2.52025 19.3999 2.20025C18.3199 1.98025 15.6399 2.00025 14.3999 2.22025Z" fill="white"/>
<path d="M28.5 14.3402C27.1 14.3802 26.06 14.5002 25.98 14.6202C25.92 14.7402 25.92 15.1602 26.02 15.5802C26.24 16.5402 26.24 23.6802 26 24.7002C25.62 26.4002 25.38 27.3202 25.22 27.7002C25.12 27.9202 24.88 28.4602 24.7 28.9002C23.86 30.9202 22.74 32.7602 21.34 34.4602C20.9 34.9802 20.58 35.4602 20.66 35.5202C20.92 35.7802 23.24 35.8402 24.88 35.6202C26.98 35.3402 28.92 34.5202 29.8 33.5602C30.46 32.8602 31.4 31.3002 31.4 30.9202C31.4 30.8002 31.52 30.4602 31.66 30.1802C31.82 29.9002 32 29.2802 32.08 28.7802C32.14 28.3002 32.28 27.5002 32.4 27.0002C32.86 24.7802 33 20.7602 32.72 18.1002C32.56 16.6602 32.34 15.2202 32.26 14.9002C32.04 14.2202 32.22 14.2402 28.5 14.3402Z" fill="white"/>
<path d="M0.279961 15.4202C0.219961 15.5402 0.219961 15.7002 0.319961 15.7802C0.679961 16.0202 1.19996 16.9802 1.43996 17.8402C1.91996 19.5602 1.61996 23.7402 0.979961 24.5402C0.679961 24.9002 0.759961 24.9602 1.65996 25.0202C2.31996 25.0802 2.45996 25.0202 2.77996 24.5002C3.47996 23.3202 3.89996 20.2201 3.57996 18.4002C3.45996 17.7802 2.85996 16.4802 2.31996 15.7402C2.01996 15.3202 1.75996 15.2002 1.17996 15.2002C0.759961 15.2002 0.359961 15.3002 0.279961 15.4202Z" fill="white"/>
<path d="M3.39996 25.6202C3.39996 25.7402 3.57996 26.0602 3.79996 26.3402C4.01996 26.6202 4.19996 27.0202 4.19996 27.2202C4.19996 27.4202 4.29996 27.6402 4.39996 27.7002C4.73996 27.9202 4.61996 30.2402 4.21996 31.3402C4.01996 31.9202 3.89996 32.4202 3.95996 32.4802C4.01996 32.5402 4.31996 32.6002 4.63996 32.6002C5.07996 32.6002 5.25996 32.4802 5.41996 32.0402C5.53996 31.7402 5.71996 31.3402 5.81996 31.1602C5.91996 30.9602 5.99996 30.0602 5.99996 29.1402C5.99996 27.4602 5.73996 26.5802 5.03996 25.7402C4.69996 25.3602 3.39996 25.2602 3.39996 25.6202Z" fill="white"/>
<path d="M6.23997 37.1802C6.09997 37.6002 5.99997 38.1002 5.99997 38.2602C5.99997 38.7002 7.09997 39.9202 7.81997 40.2802C9.73997 41.2402 14.78 41.9602 19.58 42.0002C21.48 42.0002 22.02 41.9402 22.7 41.6002C23.52 41.2002 24.18 40.2802 23.86 39.9802C23.78 39.9002 22.4 39.7802 20.8 39.7402C18.22 39.6402 15.44 39.4002 14 39.1202C12.76 38.8802 12.28 38.7602 12 38.6402C11.84 38.5802 11.62 38.5002 11.5 38.5002C11.22 38.4402 10.56 38.2002 10.16 37.9802C9.95998 37.8802 9.67998 37.8002 9.53998 37.8002C9.39997 37.8002 8.67997 37.4802 7.93997 37.1002C7.19997 36.7202 6.55997 36.4002 6.53997 36.4002C6.49997 36.4002 6.35997 36.7402 6.23997 37.1802Z" fill="white"/>
</svg>
