<svg width="54" height="64" viewBox="0 0 54 64" fill="none" xmlns="http://www.w3.org/2000/svg">
<path d="M22.84 0.352024C19.896 0.864025 17.848 1.31202 17.24 1.56802C16.888 1.72802 16.088 2.08002 15.416 2.36802C14.776 2.65602 14.168 2.88002 14.072 2.88002C13.944 2.88002 12.952 3.45602 11.832 4.16002C8.76001 6.11202 5.33601 9.88802 3.86401 12.96C3.19201 14.368 2.48801 15.776 2.29601 16.128C2.13601 16.448 1.91201 17.472 1.81601 18.368L1.65601 20L3.28801 20.032C5.08001 20.064 5.46401 20.288 6.48801 22.176C7.96001 24.8 8.34401 28.864 7.57601 33.408L7.19201 35.616L8.53601 36.96C10.456 38.88 11.128 40.96 10.904 44.256C10.744 46.848 10.264 48.288 9.01601 49.888C8.69601 50.304 8.44001 50.88 8.44001 51.136C8.44001 51.872 10.616 53.664 12.76 54.688C15.96 56.192 16.984 56.64 17.368 56.64C17.56 56.64 17.976 56.768 18.296 56.928C18.584 57.088 19.768 57.472 20.92 57.76C22.072 58.048 23.448 58.4 23.96 58.56C25.432 58.944 26.904 59.008 34.52 59.008C42.776 59.008 43.128 58.976 46.424 57.376C48.728 56.256 50.264 54.496 51.224 51.84C51.832 50.112 51.096 50.08 49.496 51.744C47.96 53.312 44.824 54.912 42.232 55.424C39.64 55.936 33.112 56.096 31.16 55.712C21.816 53.76 14.968 48.544 12.952 41.824C12.184 39.2 12.088 28.32 12.824 25.632C13.56 22.848 15.512 20.8 18.04 20.064C20.184 19.424 35.48 18.496 48.44 18.176C51.704 18.112 51.8 18.112 52.152 18.88C52.632 19.84 53.112 21.056 53.368 21.888C53.784 23.168 54.136 21.856 53.88 20C53.624 18.368 52.248 14.88 51.608 14.4C51.512 14.304 51.32 13.92 51.192 13.504C51.064 13.12 50.808 12.8 50.648 12.8C50.488 12.8 50.36 12.64 50.36 12.448C50.36 12.064 48.696 9.92002 47.192 8.41602C44.792 5.95202 38.36 1.92002 36.824 1.92002C36.568 1.92002 36.216 1.76003 36.12 1.60003C35.992 1.40802 35.736 1.28002 35.544 1.31202C35.32 1.34402 34.936 1.31202 34.68 1.18402C34.2 0.992023 33.368 0.832024 30.84 0.320023C29.112 -0.0319748 24.824 2.28882e-05 22.84 0.352024Z" fill="white"/>
<path d="M45.3999 19.744C43.1599 19.808 41.4959 20 41.3679 20.192C41.2719 20.384 41.2719 21.056 41.4319 21.728C41.7839 23.264 41.7839 34.688 41.3999 36.32C40.7919 39.04 40.4079 40.512 40.1519 41.12C39.9919 41.472 39.6079 42.336 39.3199 43.04C37.9759 46.272 36.1839 49.216 33.9439 51.936C33.2399 52.768 32.7279 53.536 32.8559 53.632C33.2719 54.048 36.9839 54.144 39.6079 53.792C42.9679 53.344 46.0719 52.032 47.4799 50.496C48.5359 49.376 50.0399 46.88 50.0399 46.272C50.0399 46.08 50.2319 45.536 50.4559 45.088C50.7119 44.64 50.9999 43.648 51.1279 42.848C51.2239 42.08 51.4479 40.8 51.6399 40C52.3759 36.448 52.5999 30.016 52.1519 25.76C51.8959 23.456 51.5439 21.152 51.4159 20.64C51.0639 19.552 51.3519 19.584 45.3999 19.744Z" fill="white"/>
<path d="M0.247889 21.472C0.151889 21.664 0.151889 21.92 0.311889 22.048C0.887889 22.432 1.71989 23.968 2.10389 25.344C2.87189 28.096 2.39189 34.784 1.36789 36.064C0.887889 36.64 1.01589 36.736 2.45589 36.832C3.51189 36.928 3.73589 36.832 4.24789 36C5.36789 34.112 6.03989 29.152 5.52789 26.24C5.33589 25.248 4.37589 23.168 3.51189 21.984C3.03189 21.312 2.61589 21.12 1.68789 21.12C1.01589 21.12 0.375889 21.28 0.247889 21.472Z" fill="white"/>
<path d="M5.23999 37.792C5.23999 37.984 5.52799 38.496 5.87999 38.944C6.23199 39.392 6.51999 40.032 6.51999 40.352C6.51999 40.672 6.67999 41.024 6.83999 41.12C7.38399 41.472 7.19199 45.184 6.55199 46.944C6.23199 47.872 6.03999 48.672 6.13599 48.768C6.23199 48.864 6.71199 48.96 7.22399 48.96C7.92799 48.96 8.21599 48.768 8.47199 48.064C8.66399 47.584 8.95199 46.944 9.11199 46.656C9.27199 46.336 9.39999 44.896 9.39999 43.424C9.39999 40.736 8.98399 39.328 7.86399 37.984C7.31999 37.376 5.23999 37.216 5.23999 37.792Z" fill="white"/>
<path d="M9.7839 56.288C9.5599 56.96 9.3999 57.76 9.3999 58.016C9.3999 58.72 11.1599 60.672 12.3119 61.248C15.3839 62.784 23.4479 63.936 31.1279 64C34.1679 64 35.0319 63.904 36.1199 63.36C37.4319 62.72 38.4879 61.248 37.9759 60.768C37.8479 60.64 35.6399 60.448 33.0799 60.384C28.9519 60.224 24.5039 59.84 22.1999 59.392C20.2159 59.008 19.4479 58.816 18.9999 58.624C18.7439 58.528 18.3919 58.4 18.1999 58.4C17.7519 58.304 16.6959 57.92 16.0559 57.568C15.7359 57.408 15.2879 57.28 15.0639 57.28C14.8399 57.28 13.6879 56.768 12.5039 56.16C11.3199 55.552 10.2959 55.04 10.2639 55.04C10.1999 55.04 9.9759 55.584 9.7839 56.288Z" fill="white"/>
</svg>
