<svg width="28" height="30" viewBox="0 0 28 30" fill="none" xmlns="http://www.w3.org/2000/svg">
<path d="M11.3598 12.585C10.5048 12.585 9.82983 13.335 9.82983 14.25C9.82983 15.165 10.5198 15.915 11.3598 15.915C12.2148 15.915 12.8898 15.165 12.8898 14.25C12.9048 13.335 12.2148 12.585 11.3598 12.585ZM16.8348 12.585C15.9798 12.585 15.3048 13.335 15.3048 14.25C15.3048 15.165 15.9948 15.915 16.8348 15.915C17.6898 15.915 18.3648 15.165 18.3648 14.25C18.3648 13.335 17.6898 12.585 16.8348 12.585Z" fill="#00B0FF"/>
<path d="M24.1249 0H4.02495C2.32995 0 0.949951 1.38 0.949951 3.09V23.37C0.949951 25.08 2.32995 26.46 4.02495 26.46H21.0349L20.24 23.685L22.1599 25.47L23.9749 27.15L27.1999 30V3.09C27.1999 1.38 25.8199 0 24.1249 0ZM18.3349 19.59C18.3349 19.59 17.795 18.945 17.345 18.375C19.31 17.82 20.0599 16.59 20.0599 16.59C19.4449 16.995 18.8599 17.28 18.3349 17.475C17.5849 17.79 16.8649 18 16.1599 18.12C14.7199 18.39 13.4 18.315 12.275 18.105C11.42 17.94 10.685 17.7 10.07 17.46C9.72495 17.325 9.34995 17.16 8.97495 16.95C8.92995 16.92 8.88495 16.905 8.83995 16.875C8.80995 16.86 8.79495 16.845 8.77995 16.83C8.50995 16.68 8.35995 16.575 8.35995 16.575C8.35995 16.575 9.07995 17.775 10.985 18.345C10.535 18.915 9.97995 19.59 9.97995 19.59C6.66495 19.485 5.40495 17.31 5.40495 17.31C5.40495 12.48 7.56495 8.565 7.56495 8.565C9.72495 6.945 11.78 6.99 11.78 6.99L11.93 7.17C9.22995 7.95 7.98495 9.135 7.98495 9.135C7.98495 9.135 8.31495 8.955 8.86995 8.7C10.475 7.995 11.75 7.8 12.275 7.755C12.365 7.74 12.44 7.725 12.53 7.725C13.4449 7.605 14.4799 7.575 15.5599 7.695C16.9849 7.86 18.515 8.28 20.075 9.135C20.075 9.135 18.89 8.01 16.34 7.23L16.55 6.99C16.55 6.99 18.605 6.945 20.765 8.565C20.765 8.565 22.9249 12.48 22.9249 17.31C22.9249 17.31 21.6499 19.485 18.3349 19.59V19.59Z" fill="#00B0FF"/>
</svg>
