<svg width="30" height="30" viewBox="0 0 30 30" fill="none" xmlns="http://www.w3.org/2000/svg">
<path d="M4 22.3333C4 21.5969 4.44772 21 5 21H25C25.5523 21 26 21.5969 26 22.3333V23.6667C26 24.4029 25.5523 25 25 25H5C4.44772 25 4 24.4029 4 23.6667V22.3333Z" fill="white"/>
<path d="M3.99988 6.33333C3.99988 5.59696 4.4476 5 4.99988 5H24.9999C25.5522 5 25.9999 5.59696 25.9999 6.33333V7.66667C25.9999 8.40305 25.5522 9 24.9999 9H4.99988C4.4476 9 3.99988 8.40305 3.99988 7.66667V6.33333Z" fill="white"/>
<path d="M3.99988 14C3.99988 13.4477 4.4476 13 4.99988 13H24.9998C25.5521 13 25.9998 13.4477 25.9998 14V16C25.9998 16.5522 25.5521 17 24.9998 17H4.99988C4.4476 17 3.99988 16.5522 3.99988 16V14Z" fill="white"/>
</svg>
