<svg width="94" height="127" viewBox="0 0 94 127" fill="none" xmlns="http://www.w3.org/2000/svg">
<path d="M68.4228 77.6128C70.8641 75.9507 74.2504 74.5123 74.2504 74.5123C74.2504 74.5123 64.6127 76.2489 55.0246 77.0427C43.2949 78.0098 30.6933 78.208 24.3676 77.3648C9.39988 75.3806 32.5858 69.8983 32.5858 69.8983C32.5858 69.8983 23.5953 69.3037 12.5128 74.6112C-0.561605 80.9117 44.8885 83.7888 68.4228 77.6128Z" fill="black"/>
<path d="M47.1553 69.6504C42.4235 59.0592 26.4598 49.7572 47.1553 33.4858C72.9813 13.1961 59.7319 0 59.7319 0C65.0863 20.9597 40.9045 27.3097 32.1627 40.3319C26.2103 49.2365 35.0766 58.7864 47.1553 69.6504Z" fill="black"/>
<path d="M75.6954 25.9453C75.7203 25.9453 32.0631 36.8096 52.9081 60.7207C59.0594 67.7653 51.2892 74.1153 51.2892 74.1153C51.2892 74.1153 66.9045 66.079 59.7319 56.033C53.0325 46.6568 47.9021 41.9937 75.6954 25.9453Z" fill="black"/>
<path d="M74.1765 93.0411C74.052 93.3387 73.6783 93.6614 73.6783 93.686C105.63 85.3269 93.8755 64.1933 78.6089 69.5516C77.2639 70.0229 76.5673 71.1142 76.5673 71.1142C76.5673 71.1142 77.4136 70.7667 79.3069 70.3699C87.0267 68.7578 98.1094 80.6638 74.1765 93.0411Z" fill="black"/>
<path d="M85.931 108.494C85.931 108.494 89.542 111.446 81.9711 113.753C67.5517 118.093 22.0018 119.408 9.3504 113.927C4.79295 111.967 13.3349 109.213 16.0248 108.643C18.8138 108.048 20.4326 108.147 20.4326 108.147C15.377 104.6 -12.2668 115.117 6.38657 118.119C57.2412 126.353 99.1307 114.422 85.931 108.494Z" fill="black"/>
<path d="M30.2452 98.2251C10.6454 103.682 42.1745 114.944 67.1281 104.302C63.0444 102.715 60.1055 100.879 60.1055 100.879C48.9732 102.988 43.8183 103.136 33.7069 101.996C25.364 101.053 30.2452 98.2251 30.2452 98.2251Z" fill="black"/>
<path d="M75.0228 122.335C55.4234 126.006 31.2415 125.585 16.921 123.228C16.921 123.203 19.8599 125.634 34.9518 126.601C57.9135 128.065 93.1781 125.782 94 114.968C94.0003 114.968 92.4064 119.061 75.0228 122.335Z" fill="black"/>
<path d="M64.1649 87.5593C49.4211 90.3873 40.8792 90.3127 30.0958 89.1965C21.7526 88.3282 27.2068 84.3103 27.2068 84.3103C5.59015 91.4538 39.2107 99.5404 69.4192 90.7346C66.207 89.6181 64.1649 87.5593 64.1649 87.5593Z" fill="black"/>
</svg>
