<svg width="100" height="100" viewBox="0 0 100 100" fill="none" xmlns="http://www.w3.org/2000/svg">
<path d="M99.9996 0H0V100H99.9996V0Z" fill="white"/>
<path d="M54.4197 77.9913C54.4197 87.7233 48.7053 92.1653 40.3792 92.1653C32.8572 92.1653 28.5046 88.2816 26.2722 83.572L33.9283 78.9513C35.4016 81.5628 36.7409 83.7724 39.9775 83.7724C43.0577 83.7724 45.0225 82.5672 45.0225 77.8576V45.9153H54.4197V77.9913Z" fill="black"/>
<path d="M76.6519 92.1652C67.9242 92.1652 62.277 88.0132 59.5314 82.5671L67.1877 78.1471C69.1966 81.4286 71.8303 83.8615 76.451 83.8615C80.3349 83.8615 82.8345 81.9197 82.8345 79.219C82.8345 76.0045 80.2901 74.8666 75.9823 72.969L73.6386 71.9647C66.8529 69.0851 62.3662 65.4466 62.3662 57.7907C62.3662 50.737 67.7455 45.3798 76.1158 45.3798C82.098 45.3798 86.3836 47.4556 89.4641 52.9022L82.1425 57.5896C80.5356 54.71 78.7945 53.572 76.0936 53.572C73.3479 53.572 71.6068 55.3133 71.6068 57.5896C71.6068 60.4022 73.3479 61.5409 77.3882 63.3038L79.7317 64.3083C87.7228 67.7236 92.2093 71.2284 92.2093 79.0853C92.2098 87.5223 85.5578 92.1652 76.6519 92.1652Z" fill="black"/>
</svg>
