<svg width="30" height="30" viewBox="0 0 30 30" fill="none" xmlns="http://www.w3.org/2000/svg">
<path d="M28.3416 12.3316L20.3364 20.3365C18.1253 22.548 14.5429 22.548 12.3316 20.3365L9.66335 17.668L12.3316 15.0001L14.9999 17.668C15.737 18.4036 16.9329 18.4051 17.6685 17.668L25.6732 9.66344C26.4084 8.92728 26.4084 7.73042 25.6732 6.99407L23.0049 4.32587C22.2693 3.59076 21.072 3.59076 20.3364 4.32587L17.4786 7.18416C16.1537 6.40444 14.648 6.07005 13.1572 6.17048L17.6685 1.65767C19.8796 -0.552558 23.4637 -0.552558 25.6732 1.65767L28.3417 4.32587C30.5528 6.53623 30.5528 10.1214 28.3416 12.3316ZM12.5197 22.8171L9.66341 25.6732C8.92637 26.4103 7.7305 26.4085 6.9952 25.6732L4.32681 23.005C3.58977 22.2694 3.58977 21.0735 4.32681 20.3365L12.3316 12.3316C13.067 11.5965 14.2648 11.5965 15 12.3316L17.6685 15.0001L20.3364 12.3316L17.6685 9.66338C15.4571 7.45315 11.8747 7.45315 9.66347 9.66338L1.65848 17.668C-0.552825 19.8798 -0.552825 23.4639 1.65848 25.6732L4.32681 28.3414C6.53637 30.5529 10.1204 30.5529 12.3316 28.3414L16.8426 23.8303C15.3519 23.9297 13.8501 23.5949 12.5197 22.8171Z" fill="#00B0FF"/>
</svg>
