<svg width="30" height="29" viewBox="0 0 30 29" fill="none" xmlns="http://www.w3.org/2000/svg">
<path d="M27.7793 0H2.21484C0.990234 0 0 0.93457 0 2.09004V26.9043C0 28.0598 0.990234 29 2.21484 29H27.7793C29.0039 29 30 28.0598 30 26.91V2.09004C30 0.93457 29.0039 0 27.7793 0ZM8.90039 24.7123H4.44727V10.8693H8.90039V24.7123ZM6.67383 8.9832C5.24414 8.9832 4.08984 7.86738 4.08984 6.49102C4.08984 5.11465 5.24414 3.99883 6.67383 3.99883C8.09766 3.99883 9.25195 5.11465 9.25195 6.49102C9.25195 7.86172 8.09766 8.9832 6.67383 8.9832ZM25.5645 24.7123H21.1172V17.9834C21.1172 16.3805 21.0879 14.3131 18.8027 14.3131C16.4883 14.3131 16.1367 16.0633 16.1367 17.8701V24.7123H11.6953V10.8693H15.9609V12.7611H16.0195C16.6113 11.6736 18.0645 10.5238 20.2266 10.5238C24.7324 10.5238 25.5645 13.3898 25.5645 17.1168V24.7123V24.7123Z" fill="#00B0FF"/>
</svg>
