<svg width="30" height="30" viewBox="0 0 600 552" fill="none" xmlns="http://www.w3.org/2000/svg">
<path d="M460.052 96.731V50.979C460.052 22.952 437.25 0.144989 409.218 0.144989H200.798C172.765 0.144989 149.964 22.952 149.964 50.979V96.731H190.633V50.979C190.633 45.375 195.194 40.814 200.798 40.814H409.217C414.825 40.814 419.382 45.376 419.382 50.979V96.731H460.052Z" fill="#00B0FF"/>
<path d="M0 551.701H599.846V134.856H0V551.701ZM45.752 180.608H554.099V505.948H45.752V180.608Z" fill="#00B0FF"/>
<path d="M465.138 249.234H129.629V274.651H465.138V249.234Z" fill="#00B0FF"/>
<path d="M465.138 333.111H129.629V358.528H465.138V333.111Z" fill="#00B0FF"/>
<path d="M465.138 416.989H129.629V442.406H465.138V416.989Z" fill="#00B0FF"/>
</svg>
