<svg width="90" height="120" viewBox="0 0 90 120" fill="none" xmlns="http://www.w3.org/2000/svg">
<path fill-rule="evenodd" clip-rule="evenodd" d="M41.3369 0.0234384C41.2948 0.0678167 40.4685 0.140889 39.5006 0.186415C38.5327 0.231558 37.121 0.340207 36.3635 0.427816C35.606 0.515425 34.1109 0.657361 33.0409 0.743057C31.9712 0.829135 30.9383 0.958826 30.7454 1.0319C30.553 1.10497 29.6379 1.24652 28.7121 1.34675C27.7862 1.4466 26.7189 1.62488 26.3401 1.74233C25.9614 1.86016 24.9954 2.05948 24.1935 2.18611C23.3917 2.31236 22.4505 2.51666 22.102 2.63946C21.7539 2.76227 21.136 2.91147 20.729 2.97077C20.3223 3.03007 19.7484 3.19763 19.4538 3.34301C19.1593 3.48839 18.6344 3.65098 18.2878 3.70416C17.9408 3.75734 17.3554 3.93791 16.987 4.10509C16.6182 4.27227 16.179 4.41268 16.0107 4.41727C15.8424 4.42148 15.3603 4.59478 14.9395 4.80175C14.5187 5.00872 14.0841 5.17859 13.9735 5.17935C13.5225 5.1828 9.01233 7.42926 7.42083 8.44307C5.08064 9.93433 4.83771 10.1237 3.37361 11.5916C1.84179 13.128 0.923242 14.3745 0.655442 15.2808C0.568215 15.5753 0.392231 16.0918 0.264835 16.4285C-0.0882783 17.3597 -0.0882783 102.264 0.264835 103.196C0.392231 103.532 0.56783 104.043 0.654674 104.329C1.53229 107.234 8.12974 112.609 12.4145 113.911C12.6249 113.975 13.037 114.155 13.3304 114.312C13.6238 114.468 13.9494 114.596 14.0542 114.596C14.1591 114.596 14.6767 114.763 15.2042 114.966C15.7318 115.17 16.7835 115.523 17.541 115.751C18.2985 115.979 19.4003 116.326 19.9894 116.521C20.5786 116.717 21.3636 116.923 21.7336 116.978C22.1039 117.034 22.6368 117.176 22.9176 117.293C23.1988 117.41 23.9491 117.579 24.5849 117.667C25.2207 117.756 26.018 117.926 26.3566 118.045C26.6952 118.165 27.4328 118.305 27.9951 118.357C28.5579 118.409 29.6035 118.582 30.3189 118.74C31.0343 118.898 32.7903 119.138 34.2211 119.272C35.6519 119.407 37.6489 119.596 38.6589 119.692C41.0404 119.918 49.3044 119.916 51.6664 119.688C52.6763 119.59 54.6734 119.404 56.1042 119.274C57.535 119.143 59.1678 118.929 59.7325 118.797C60.2975 118.665 61.3863 118.493 62.1523 118.414C62.9185 118.334 63.6661 118.205 63.8138 118.126C63.9614 118.047 64.7319 117.87 65.5258 117.734C66.3196 117.597 67.4168 117.36 67.9639 117.206C68.511 117.053 69.3029 116.857 69.7237 116.77C70.4563 116.62 71.2089 116.396 72.7078 115.883C73.0865 115.754 73.7663 115.544 74.2182 115.418C74.6704 115.292 75.289 115.056 75.5931 114.893C75.8977 114.73 76.2508 114.596 76.3782 114.596C76.5056 114.596 76.8353 114.458 77.1112 114.29C77.3866 114.122 77.6912 113.984 77.7876 113.984C77.941 113.984 79.508 113.295 80.233 112.908C80.3741 112.833 81.0019 112.499 81.6282 112.165C82.6485 111.621 83.2836 111.227 85.061 110.033C86.5362 109.042 89.0746 106.054 89.3251 105.014C89.3837 104.771 89.5593 104.317 89.7157 104.005C89.9908 103.456 90 102.033 90 60.2888V17.1401L89.5245 15.9522C89.0015 14.6465 88.8129 14.3458 87.5022 12.7294C85.8265 10.6635 83.5609 9.01157 79.472 6.87453C78.1632 6.19049 75.6853 5.18433 73.7025 4.53204C73.1975 4.36601 72.4618 4.09974 72.0674 3.9402C71.6729 3.78105 71.2058 3.6506 71.0294 3.6506C70.8531 3.6506 70.4525 3.53889 70.1396 3.40269C69.5734 3.15593 68.0083 2.76877 65.8215 2.33455C65.1902 2.20907 64.1573 1.97455 63.5261 1.81349C62.8948 1.65243 61.9307 1.47759 61.3837 1.42518C60.8366 1.37277 59.9414 1.22815 59.3943 1.10382C58.8472 0.979866 57.6765 0.813449 56.7928 0.734257C55.9091 0.655064 54.4974 0.516573 53.6557 0.426287C52.8141 0.336 51.7811 0.235002 51.3603 0.201718C49.9918 0.0934503 41.4157 -0.0588144 41.3369 0.0234384ZM55.9512 6.92847C56.7086 7.05854 58.1892 7.26781 59.2413 7.39291C60.2933 7.51839 61.464 7.71733 61.8428 7.83554C62.2215 7.95338 62.979 8.10143 63.5261 8.16379C64.0731 8.22653 64.774 8.37842 65.0831 8.50122C65.3926 8.62403 66.0468 8.81761 66.5369 8.93161C67.6123 9.18105 69.1939 9.69943 70.0298 10.0763C70.3664 10.2278 70.7926 10.3972 70.9774 10.452C71.8944 10.7251 74.494 12.3285 75.2985 13.1177C77.1215 14.9055 77.4566 15.9552 76.721 17.5762C75.7645 19.6845 72.7889 21.6754 68.576 23.0255C68.1973 23.1468 67.5775 23.3534 67.1987 23.4846C66.82 23.6158 66.0625 23.8094 65.5154 23.915C64.9684 24.0206 64.142 24.2153 63.6791 24.3477C63.2162 24.4801 62.1144 24.7054 61.2306 24.8481C60.3469 24.9908 59.2795 25.1649 58.8587 25.2349C58.4379 25.3049 57.2672 25.4342 56.2572 25.5222C55.2472 25.6102 53.5256 25.7858 52.4315 25.9124C49.6418 26.2353 40.2389 26.2323 37.2817 25.9071C36.1034 25.7774 34.0991 25.5769 32.8278 25.4614C31.5565 25.3458 30.2481 25.1794 29.9202 25.0918C29.5924 25.0038 28.6256 24.8275 27.7713 24.6993C26.9174 24.5715 26.0226 24.3925 25.7827 24.301C25.5429 24.21 24.899 24.0413 24.3515 23.9265C23.146 23.6732 20.8437 22.9773 20.6146 22.7971C20.5231 22.7252 20.0878 22.5489 19.647 22.405C19.2059 22.2612 18.8092 22.0852 18.7648 22.0136C18.7205 21.9417 18.427 21.7986 18.1126 21.695C17.7981 21.5913 17.3688 21.3889 17.1584 21.2454C16.948 21.1016 16.394 20.7397 15.9277 20.4409C12.897 18.4993 12.1984 16.145 13.9486 13.7727C14.6602 12.8078 17.6944 10.8005 19.0441 10.4015C19.3115 10.3223 19.8747 10.1183 20.2955 9.9481C21.3981 9.50241 23.5233 8.85357 23.8806 8.85357C24.0489 8.85357 24.516 8.72502 24.9189 8.5674C25.3217 8.41017 26.0647 8.23265 26.5697 8.17297C27.0747 8.11329 28.0001 7.93234 28.626 7.77051C29.2523 7.60868 29.9971 7.47631 30.2814 7.47631C30.5656 7.47631 31.7061 7.33132 32.8159 7.1538C36.7683 6.52218 52.6821 6.36724 55.9512 6.92847ZM28.4274 51.9418C28.9206 52.07 29.5652 52.2919 29.8598 52.4353L30.3954 52.6962L30.4371 55.4087L30.4788 58.1211L30.0698 58.224C29.8085 58.2894 29.4895 58.2355 29.1865 58.0748C27.3275 57.0889 23.6885 56.7974 22.5611 57.5438C21.242 58.4176 21.9088 59.954 23.9142 60.6618C24.2662 60.7857 24.6285 60.946 24.7199 61.0179C24.8114 61.0895 25.4575 61.4036 26.1553 61.7161C30.115 63.487 31.5963 65.4179 31.6047 68.8193C31.6139 72.4327 29.8705 74.6421 26.0341 75.8785C23.8511 76.5825 18.5261 76.6353 16.5463 75.9726C16.1676 75.846 15.5761 75.6704 15.2322 75.5824C14.3213 75.3498 14.2509 75.0862 14.2509 71.9128C14.2509 68.4819 14.1832 68.5649 16.137 69.5994C16.9384 70.024 17.7043 70.371 17.839 70.371C17.9741 70.371 18.476 70.5088 18.955 70.6771C23.2688 72.1932 25.2777 68.8997 21.1372 67.0989C18.0781 65.7683 16.4778 64.8264 15.6591 63.8746C13.3342 61.1713 13.4276 56.8755 15.8653 54.3784C16.6071 53.6186 18.2204 52.4667 18.5426 52.4667C18.6271 52.4667 19.0904 52.3236 19.5724 52.1484C21.2718 51.5313 26.3834 51.412 28.4274 51.9418ZM47.701 51.6863C51.13 52.0145 55.458 55.0521 56.2595 57.6922C56.3196 57.89 56.4894 58.2588 56.6367 58.5113C57.3074 59.6602 57.7779 63.0964 57.558 65.2446C57.1551 69.1843 55.5678 72.1194 52.6698 74.2836L51.2933 75.3116L51.6931 75.7871C51.9135 76.0488 52.2769 76.4004 52.5015 76.5687C53.1492 77.0549 56.6742 80.0807 57.6433 80.9828C59.0741 82.3145 59.0932 82.3073 54.0827 82.3073H49.8327L48.7603 81.1297C45.2935 77.3235 44.4117 76.5224 43.5761 76.418C42.5577 76.2909 40.2971 75.5989 39.8066 75.2634C39.5962 75.1195 39.2664 74.9531 39.0736 74.893C38.5361 74.7262 36.4289 72.971 36.103 72.4189C35.9438 72.1492 35.7265 71.8952 35.6202 71.8543C34.3929 71.3833 32.9165 65.305 33.3825 62.6431C33.8297 60.0898 34.008 59.4425 34.593 58.2451C37.0066 53.3045 41.4391 51.0868 47.701 51.6863ZM68.0932 52.0558C68.2084 52.1943 68.2738 54.9921 68.3032 61.0768C68.3377 68.0576 68.3878 69.9383 68.545 70.0956C68.6946 70.2456 69.6767 70.306 72.5195 70.3404C75.2442 70.3737 76.328 70.4376 76.4122 70.57C76.6138 70.8871 76.5576 75.7947 76.3499 76.0025C75.9883 76.364 61.2785 76.2558 61.083 75.89C60.7918 75.346 60.871 52.3894 61.1652 52.0952C61.4919 51.7681 67.8246 51.7322 68.0932 52.0558ZM43.7854 58.2512C42.7375 58.8801 42.3075 59.3606 41.7608 60.5156L41.2604 61.5719L41.2627 64.0969L41.265 66.6218L41.7761 67.6165C43.5168 71.0027 47.188 71.1488 49.0339 67.9054C49.5947 66.9202 49.9922 64.2514 49.7719 62.9545C49.6854 62.4465 49.5718 61.7617 49.5194 61.4319C49.0775 58.6525 45.9806 56.9344 43.7854 58.2512Z" fill="white"/>
<path fill-rule="evenodd" clip-rule="evenodd" d="M36.5164 6.70932C35.5906 6.77665 33.9252 6.97674 32.8158 7.15387C31.7059 7.33138 30.5655 7.47638 30.2812 7.47638C29.997 7.47638 29.2521 7.60875 28.6259 7.77057C28 7.9324 27.0745 8.11336 26.5695 8.17304C26.0645 8.23272 25.3216 8.41023 24.9187 8.56747C24.5159 8.72509 24.0488 8.85363 23.8804 8.85363C23.5231 8.85363 21.3979 9.50248 20.2954 9.94817C19.8745 10.1184 19.3114 10.3223 19.044 10.4015C17.6943 10.8005 14.6601 12.8079 13.9485 13.7727C12.1982 16.1451 12.8968 18.4994 15.9275 20.441C16.3939 20.7397 16.9479 21.1017 17.1583 21.2455C17.3687 21.389 17.7979 21.5913 18.1124 21.695C18.4269 21.7987 18.7203 21.9418 18.7647 22.0137C18.8091 22.0852 19.2058 22.2612 19.6469 22.4051C20.0876 22.5489 20.523 22.7253 20.6144 22.7972C20.8436 22.9774 23.1459 23.6733 24.3514 23.9266C24.8988 24.0413 25.5427 24.21 25.7826 24.3011C26.0225 24.3925 26.9173 24.5716 27.7712 24.6994C28.6255 24.8275 29.5922 25.0039 29.9201 25.0919C30.248 25.1795 31.5564 25.3459 32.8276 25.4614C34.0989 25.577 36.1032 25.7774 37.2815 25.9071C40.2388 26.2323 49.6416 26.2354 52.4314 25.9125C53.5255 25.7859 55.2471 25.6103 56.2571 25.5223C57.2671 25.4343 58.4377 25.305 58.8586 25.235C59.2794 25.1649 60.3468 24.9909 61.2305 24.8482C62.1142 24.7055 63.216 24.4801 63.679 24.3478C64.1419 24.2154 64.9682 24.0207 65.5153 23.9151C66.0624 23.8095 66.8199 23.6159 67.1986 23.4847C67.5774 23.3535 68.1971 23.1469 68.5759 23.0256C74.8826 21.0045 78.3731 17.3972 76.624 14.7089C75.6182 13.1633 72.7103 10.9693 70.9861 10.4551C70.7967 10.3985 70.3663 10.2278 70.0296 10.0763C69.1937 9.6995 67.6122 9.18112 66.5368 8.93168C66.0467 8.81767 65.3925 8.62409 65.083 8.50129C64.7739 8.37848 64.073 8.2266 63.5259 8.16386C62.9788 8.1015 62.2214 7.95344 61.8426 7.83561C61.4639 7.7174 60.2932 7.51846 59.2411 7.39298C58.1891 7.26788 56.7085 7.05861 55.951 6.92854C54.371 6.65729 39.5391 6.48972 36.5164 6.70932ZM21.5961 51.7001C20.9649 51.7716 20.054 51.9736 19.5723 52.1485C19.0903 52.3237 18.627 52.4668 18.5424 52.4668C18.2203 52.4668 16.607 53.6187 15.8652 54.3785C13.4274 56.8755 13.3341 61.1714 15.659 63.8747C16.4777 64.8265 18.078 65.7684 21.137 67.099C25.2776 68.8997 23.2687 72.1933 18.9548 70.6772C18.4759 70.5088 17.9739 70.3711 17.8389 70.3711C17.7042 70.3711 16.9578 70.0341 16.18 69.6224C14.1914 68.5696 14.2507 68.4996 14.2507 71.9018C14.2507 75.0874 14.3207 75.3495 15.232 75.5825C15.576 75.6705 16.1674 75.8461 16.5462 75.9727C18.526 76.6353 23.851 76.5825 26.0339 75.8786C29.8704 74.6421 31.6137 72.4328 31.6046 68.8194C31.5961 65.418 30.1148 63.4871 26.1552 61.7162C25.4574 61.4036 24.8112 61.0895 24.7198 61.018C24.6284 60.9461 24.2661 60.7858 23.9141 60.6618C21.9087 59.9541 21.2418 58.4177 22.561 57.5439C23.6884 56.7975 27.3274 57.089 29.1863 58.0749C29.4893 58.2356 29.8084 58.2895 30.0697 58.2241L30.4786 58.1212L30.4369 55.4087L30.3952 52.6963L29.8596 52.4354C28.4445 51.746 24.3766 51.3841 21.5961 51.7001ZM43.4792 51.6928C36.5611 52.5085 32.0766 59.5642 33.6016 67.234C33.8824 68.6461 35.216 71.6994 35.62 71.8543C35.7264 71.8953 35.9437 72.1493 36.1028 72.419C36.4288 72.9711 38.536 74.7263 39.0735 74.8931C39.2663 74.9532 39.5961 75.1196 39.8065 75.2634C40.2985 75.5997 42.5583 76.2914 43.5829 76.4192C44.3805 76.5186 46.1809 78.0945 47.8631 80.1649C48.1022 80.4595 48.6493 81.0621 49.0789 81.5039L49.8601 82.3073H54.0963C59.0915 82.3073 59.0736 82.3138 57.6431 80.9829C56.6741 80.0808 53.1491 77.055 52.5014 76.5688C52.2768 76.4004 51.9134 76.0488 51.693 75.7872L51.2932 75.3116L52.6697 74.2837C55.5677 72.1195 57.155 69.1844 57.5578 65.2446C57.7778 63.0965 57.3072 59.6603 56.6366 58.5114C56.4893 58.2589 56.3194 57.8901 56.2594 57.6923C56.1117 57.2064 55.5596 56.4042 54.6036 55.2871C52.1211 52.3864 48.238 51.132 43.4792 51.6928ZM61.1651 52.0953C60.8709 52.3895 60.7917 75.3461 61.0828 75.8901C61.2783 76.2558 75.9882 76.3641 76.3497 76.0025C76.5433 75.809 76.6229 71.0884 76.4404 70.6133C76.3593 70.4017 75.8799 70.3711 72.6441 70.3711C69.6876 70.3711 68.8804 70.3271 68.6432 70.1538C68.3563 69.9441 68.3448 69.6446 68.3031 61.0968C68.2736 54.9975 68.2082 52.1944 68.0931 52.0559C67.8245 51.7322 61.4918 51.7682 61.1651 52.0953ZM47.1339 58.1529C49.3597 59.4797 50.227 62.1956 49.6348 65.9826C48.8849 70.7732 43.9283 71.8038 41.776 67.6166L41.2649 66.6219L41.2626 64.0969L41.2603 61.572L41.7607 60.5157C42.8617 58.1904 45.3568 57.0932 47.1339 58.1529Z" fill="black"/>
</svg>
